<?xml version="1.0" standalone="no"?>
<!DOCTYPE svg PUBLIC "-//W3C//DTD SVG 20010904//EN"
 "http://www.w3.org/TR/2001/REC-SVG-20010904/DTD/svg10.dtd">
<svg version="1.0" xmlns="http://www.w3.org/2000/svg"
 width="567.000000pt" height="567.000000pt" viewBox="0 0 567.000000 567.000000"
 preserveAspectRatio="xMidYMid meet">
<metadata>
Created by potrace 1.11, written by Peter Selinger 2001-2013
</metadata>
<g transform="translate(0.000000,567.000000) scale(0.100000,-0.100000)"
fill="#000000" stroke="none">
<path d="M2647 5224 c-1 -1 -24 -4 -52 -8 -51 -6 -176 -37 -230 -58 -113 -43
-301 -144 -372 -201 -34 -28 -86 -77 -80 -77 4 0 -8 -16 -26 -35 -17 -19 -43
-49 -57 -66 -14 -17 -30 -37 -35 -43 -32 -35 -135 -177 -135 -186 0 -5 -4 -10
-8 -10 -9 0 -70 -91 -108 -160 -10 -19 -23 -38 -29 -42 -5 -4 -6 -8 -2 -8 5 0
-1 -12 -12 -26 -12 -15 -21 -35 -21 -45 0 -10 -5 -21 -10 -24 -6 -4 -8 -11 -5
-16 4 -5 1 -9 -4 -9 -6 0 -11 -7 -11 -15 0 -8 -5 -15 -12 -15 -8 0 -9 -3 -2
-10 13 -13 86 -21 78 -9 -3 5 -16 9 -28 9 l-23 0 23 47 c12 26 21 51 18 54 -2
4 4 6 14 5 12 -1 18 -12 22 -41 3 -27 10 -40 20 -40 14 0 75 -62 111 -112 8
-10 29 -25 47 -32 17 -7 32 -17 32 -21 0 -18 -51 -68 -75 -72 -25 -5 -55 17
-55 40 0 7 -16 12 -40 12 -28 0 -40 -4 -40 -14 0 -24 28 -44 56 -41 l26 2 -28
-23 c-26 -21 -46 -28 -66 -25 -5 0 -8 -3 -8 -9 0 -5 9 -10 21 -10 11 0 17 -4
14 -11 -4 -5 7 -15 24 -22 33 -12 44 -47 15 -47 -13 0 -14 -3 -5 -14 9 -11 9
-16 -1 -23 -15 -9 -48 -77 -48 -96 1 -7 9 4 20 23 37 71 119 123 112 73 -2
-16 2 -23 12 -23 9 0 16 7 16 15 0 8 5 15 10 15 6 0 10 6 9 13 -1 6 1 23 5 37
4 14 8 55 9 90 2 56 5 66 25 76 19 9 34 8 72 -5 26 -9 46 -19 43 -23 -2 -5 7
-13 20 -19 22 -10 23 -15 21 -82 -2 -40 -6 -92 -9 -116 -5 -33 -2 -48 11 -63
14 -14 16 -23 8 -36 -15 -24 -11 -117 6 -137 12 -14 15 -13 32 14 14 22 25 28
43 25 13 -2 34 0 47 6 l23 10 -25 -3 c-27 -2 -36 24 -10 29 8 2 31 7 50 11 19
5 56 8 81 7 43 -2 46 0 41 21 -7 37 18 42 45 9 21 -26 25 -28 45 -15 31 19
119 17 208 -5 14 -3 45 -7 69 -8 35 -1 44 3 47 17 2 13 -5 17 -26 17 -25 0
-46 21 -42 43 1 4 -4 7 -12 7 -8 0 -17 13 -21 30 -7 32 -25 51 -25 26 0 -9 -4
-16 -10 -16 -5 0 -10 5 -10 11 0 5 -5 7 -12 3 -8 -5 -9 0 -5 15 4 17 2 20 -7
12 -7 -6 -17 -6 -26 -1 -25 16 -1 24 39 14 32 -9 38 -8 34 3 -3 7 2 13 11 13
9 0 16 -4 16 -10 0 -5 10 -8 23 -6 12 2 30 -1 41 -6 15 -8 16 -12 5 -19 -8 -5
-9 -9 -4 -10 6 0 20 -2 32 -3 12 -2 19 2 16 7 -4 6 3 7 18 3 13 -4 34 -8 47
-9 12 -1 22 -5 22 -10 0 -5 9 -7 19 -4 11 3 22 -1 25 -8 6 -18 36 -13 51 8 7
9 14 14 18 11 3 -3 8 8 12 25 11 50 22 27 22 -43 0 -41 -4 -63 -10 -59 -6 4
-8 -2 -5 -15 4 -12 3 -22 -2 -22 -4 0 -10 -13 -12 -30 -4 -23 -1 -30 13 -30
10 0 19 10 23 24 4 17 12 24 24 21 10 -2 25 1 33 6 12 8 11 12 -5 24 -20 15
-20 17 13 19 30 2 32 9 23 70 -13 83 7 71 50 -29 10 -24 20 -31 47 -33 l34 -4
-18 28 c-29 45 -28 71 6 83 32 11 36 3 19 -29 -15 -28 12 -51 53 -45 65 11
127 13 127 6 0 -4 -11 -13 -25 -19 -28 -13 -33 -39 -10 -48 8 -4 55 4 103 16
121 32 227 30 312 -4 35 -14 69 -26 76 -26 7 0 22 -15 33 -33 11 -18 30 -42
42 -53 30 -27 67 -104 65 -134 -2 -14 3 -35 11 -47 12 -20 11 -24 -9 -37 -34
-22 -69 -25 -109 -12 -19 7 -42 9 -50 5 -51 -27 -128 -59 -149 -61 -14 -2 -29
-6 -35 -9 -8 -4 -236 -4 -283 0 -8 0 -12 9 -10 18 3 15 21 17 163 19 165 2
177 3 233 24 35 13 39 22 18 40 -8 6 -16 24 -18 38 -2 20 -13 32 -43 46 -53
25 -168 27 -210 3 -16 -9 -37 -19 -46 -22 -21 -8 -52 -62 -44 -76 4 -6 0 -9
-10 -7 -10 2 -22 -6 -29 -17 -27 -47 -64 -69 -87 -52 -30 22 -109 139 -120
178 -7 23 -19 39 -28 40 -90 5 -129 8 -147 12 -11 3 -26 2 -33 -2 -14 -9 -22
-131 -9 -131 4 0 7 -67 7 -148 -1 -133 1 -153 21 -196 15 -31 27 -45 36 -42 8
3 14 1 14 -5 0 -5 23 -9 53 -8 57 2 97 -7 97 -22 0 -6 -7 -6 -17 -1 -30 15
-136 13 -163 -3 -14 -8 -21 -14 -17 -15 5 0 -7 -19 -26 -42 -42 -53 -49 -80
-30 -108 34 -49 158 -73 199 -40 9 8 19 7 37 -5 18 -11 34 -14 58 -8 46 10
130 9 152 -1 25 -12 18 19 -17 71 -37 56 -23 85 21 43 12 -10 33 -22 47 -26
14 -3 28 -14 31 -23 3 -9 19 -25 36 -35 17 -10 28 -20 25 -23 -3 -4 11 -20 31
-37 21 -17 58 -50 83 -72 25 -23 63 -53 84 -68 21 -14 35 -26 30 -26 -5 0 -2
-5 7 -10 10 -6 26 -26 38 -46 21 -35 21 -36 2 -41 -10 -3 -22 -14 -25 -26 -7
-29 5 -107 17 -107 5 0 7 -9 4 -20 -3 -11 -1 -20 4 -20 13 0 11 -68 -3 -115
-6 -22 -11 -43 -10 -47 1 -5 -2 -8 -8 -8 -5 0 -10 -9 -10 -20 0 -11 -4 -20
-10 -20 -5 0 -7 -7 -4 -15 4 -8 1 -15 -6 -15 -6 0 -9 -4 -6 -9 4 -5 1 -11 -5
-13 -6 -2 -9 -14 -7 -27 3 -21 8 -17 49 36 42 54 90 85 106 69 3 -3 -17 -38
-44 -78 -69 -103 -72 -110 -17 -51 46 49 114 94 114 75 0 -11 -52 -91 -82
-124 -66 -75 -85 -107 -89 -146 -2 -17 0 -32 4 -32 4 0 11 0 16 0 19 0 61 55
100 134 23 46 49 87 57 90 8 3 23 26 34 52 15 34 24 44 36 40 12 -5 15 0 14
22 -4 54 1 67 33 102 48 51 83 101 95 135 l10 30 1 -37 c2 -67 -44 -171 -91
-206 -9 -7 -17 -27 -17 -45 -1 -17 -2 -41 -2 -52 0 -11 3 -48 6 -82 5 -45 11
-63 21 -63 25 0 56 -61 51 -101 -3 -20 0 -43 5 -53 22 -39 35 5 53 173 8 77
-1 145 -16 118 -6 -9 -16 -17 -22 -17 -16 0 -10 68 7 89 9 12 5 13 -26 8 l-36
-5 10 30 c13 38 30 44 63 22 14 -9 28 -15 30 -12 3 3 7 58 9 124 3 116 2 121
-27 179 -16 33 -23 54 -14 47 12 -10 16 -10 21 3 6 16 -1 129 -10 154 -2 8 -7
37 -10 65 -7 62 -24 101 -44 101 -8 0 -16 7 -16 15 -1 8 -2 21 -3 28 -1 10
-10 12 -33 8 -32 -6 -33 -6 -11 10 47 34 73 64 88 101 16 41 35 161 28 179 -2
7 0 14 4 17 5 3 23 -23 41 -58 l31 -63 -30 -12 c-36 -15 -54 -48 -62 -112 -5
-39 -4 -46 8 -42 27 11 84 100 106 167 25 76 21 107 -18 140 -15 12 -39 34
-54 48 -24 23 -29 24 -42 12 -19 -19 -64 -10 -108 23 -18 13 -29 24 -23 25 23
1 81 8 98 12 12 2 20 13 21 27 2 21 17 39 66 74 25 18 69 117 69 155 0 76 -33
80 -44 6 -8 -45 -42 -108 -83 -149 -27 -28 -130 -82 -139 -74 -2 3 30 35 71
72 61 55 109 114 104 128 0 2 5 17 12 33 16 42 20 130 8 191 -9 47 -94 196
-123 216 -6 4 -8 8 -3 9 30 5 45 1 65 -19 31 -31 45 -27 27 8 -21 40 -8 38 44
-7 86 -75 99 -89 125 -146 32 -67 50 -75 42 -17 -5 38 -21 66 -98 167 -36 49
-33 63 9 37 69 -44 160 -182 146 -223 -5 -13 -3 -14 8 -3 11 10 11 23 0 73 -7
34 -16 69 -21 78 -5 9 -23 45 -40 81 -18 36 -47 86 -66 112 -98 138 -126 182
-172 275 -129 258 -262 425 -417 529 -51 34 -107 65 -125 69 -3 0 -14 6 -25
12 -11 6 -72 32 -135 57 -141 58 -203 84 -255 106 -65 28 -119 44 -137 41 -9
-1 -32 6 -50 16 -24 13 -63 19 -141 23 -60 3 -109 4 -110 4z m163 -118 c0 -27
14 -34 79 -42 108 -13 160 -24 185 -36 10 -6 35 -11 56 -13 21 -2 43 -5 47 -8
5 -3 33 -7 61 -8 43 -2 55 -7 68 -27 16 -24 16 -25 -2 -17 -11 4 -80 9 -154
10 -115 2 -153 7 -254 34 -65 17 -121 31 -122 31 -10 0 -2 23 11 36 8 9 13 26
11 40 -3 13 0 24 5 24 5 0 9 -11 9 -24z m-826 -286 c-7 -55 13 -123 32 -116
11 4 15 0 12 -16 -2 -15 -13 -25 -35 -32 -18 -5 -33 -12 -33 -15 0 -3 -18 -5
-40 -5 -31 2 -44 -3 -55 -20 -9 -11 -19 -21 -23 -22 -4 0 -20 -6 -36 -13 -16
-6 -36 -11 -44 -9 -17 3 -27 48 -11 48 6 0 9 7 5 15 -3 8 -1 15 4 15 16 0 83
67 76 78 -6 9 22 37 73 72 11 8 21 19 21 25 0 17 22 35 41 35 14 0 16 -7 13
-40z m989 -75 c54 2 59 -5 18 -23 -66 -29 -111 -19 -137 29 -21 41 -18 43 29
17 30 -17 56 -24 90 -23z m-706 -8 c26 -26 7 -33 -74 -32 -116 3 -156 21 -90
41 48 15 146 9 164 -9z m1023 -17 c85 -2 99 -5 130 -28 82 -62 97 -82 60 -82
-11 0 -20 4 -20 8 0 11 -76 49 -115 57 -29 7 -76 8 -222 5 -84 -2 -126 7 -100
21 9 5 35 12 59 15 24 4 44 7 45 8 1 1 17 1 35 0 18 -2 76 -3 128 -4z m-498
-50 c-23 -19 -109 -55 -159 -66 -60 -13 -304 -35 -419 -38 l-120 -3 -22 31
c-42 62 -27 70 55 30 57 -28 85 -29 298 -8 28 3 71 6 98 7 26 1 47 5 47 9 0 4
17 8 38 9 20 0 73 11 117 24 44 12 82 23 85 23 3 1 -5 -7 -18 -18z m1014 -26
c16 -20 5 -62 -17 -69 -10 -3 -29 -1 -41 6 -13 7 -25 10 -27 8 -3 -2 -6 9 -6
24 -3 50 59 71 91 31z m-1749 -46 c14 -23 11 -38 -6 -38 -10 0 -25 -8 -33 -17
-17 -21 -35 -51 -23 -41 5 5 23 -3 40 -16 23 -18 32 -20 32 -10 0 8 -4 14 -9
14 -4 0 -8 9 -8 19 0 27 34 35 85 20 38 -11 44 -17 47 -45 4 -34 -11 -64 -31
-64 -6 0 -11 4 -11 10 0 5 -11 9 -25 8 -14 -1 -25 -8 -25 -14 0 -6 -6 -17 -14
-23 -8 -7 -15 -20 -16 -29 -12 -210 -10 -201 -38 -204 -22 -2 -26 -8 -24 -25
2 -13 -2 -23 -7 -23 -6 0 -11 -9 -11 -20 0 -12 5 -17 13 -14 15 5 40 -19 43
-42 3 -20 -21 -36 -66 -44 l-40 -7 0 36 c0 20 -4 42 -9 50 -7 11 -3 20 11 33
17 14 18 18 5 18 -25 0 -32 22 -12 37 11 7 15 13 10 13 -4 0 0 9 10 20 10 11
14 20 9 20 -5 0 -1 7 10 15 18 13 17 14 -8 21 -16 4 -26 13 -26 24 0 11 -4 22
-10 25 -9 5 4 40 20 55 12 11 4 33 -13 36 -31 4 -31 12 -1 51 l28 38 -43 -38
c-40 -36 -67 -44 -65 -19 1 7 2 21 3 33 0 11 5 17 11 14 5 -3 12 6 16 20 3 14
14 26 23 26 13 1 13 2 -2 6 -10 3 -16 10 -14 16 6 18 60 47 96 51 17 2 35 6
38 10 10 10 31 7 40 -6z m1682 -99 c1 -30 -31 -62 -82 -78 -33 -11 -41 -10
-74 11 -21 13 -38 30 -38 38 1 26 15 40 41 40 26 0 32 -18 12 -38 -20 -20 -2
-24 34 -9 43 18 88 65 89 92 1 17 2 16 9 -5 4 -14 8 -37 9 -51z m-2009 -5 c0
-17 -7 -37 -15 -44 -8 -7 -15 -19 -15 -27 0 -10 -6 -13 -16 -9 -9 3 -21 6 -27
6 -6 0 -3 6 7 13 9 7 16 17 15 22 -1 6 2 24 6 42 10 44 45 42 45 -3z m480 26
c0 -5 -2 -10 -4 -10 -3 0 -8 5 -11 10 -3 6 -1 10 4 10 6 0 11 -4 11 -10z
m-505 -150 c16 -74 67 -145 94 -131 9 4 30 7 46 7 53 -2 36 -55 -27 -83 -22
-10 -30 -10 -42 2 -8 8 -17 15 -21 15 -4 0 -19 12 -34 28 -43 43 -63 115 -52
185 3 20 30 3 36 -23z m2375 -151 c0 -28 -22 -70 -34 -66 -6 2 -24 -7 -40 -20
-30 -25 -72 -25 -88 0 -14 22 -8 27 31 27 33 0 44 6 70 37 17 21 31 44 31 52
0 11 3 11 15 1 8 -7 15 -21 15 -31z m-794 -34 c16 -4 38 -8 49 -10 11 -2 36
-16 55 -31 l35 -26 -45 7 c-25 4 -85 10 -134 14 l-88 6 28 28 c20 20 35 27 50
23 12 -3 34 -8 50 -11z m-656 -63 c66 -18 116 -19 335 -7 l100 6 -25 -20 c-53
-43 -206 -54 -341 -26 -40 9 -74 13 -77 10 -3 -3 -11 0 -18 6 -15 12 -186 16
-231 5 -27 -6 -33 -5 -33 9 0 8 10 20 23 25 40 16 198 11 267 -8z m750 -90 c0
-16 -55 -34 -113 -38 -32 -2 -71 -11 -87 -19 -17 -9 -30 -13 -30 -10 0 3 -13
-1 -30 -10 -16 -9 -30 -12 -30 -8 0 5 -4 4 -8 -2 -11 -15 -100 -47 -164 -58
-43 -8 -70 -7 -115 4 -32 7 -62 13 -66 11 -5 -1 -6 1 -3 6 2 4 38 7 78 7 68
-2 103 4 153 25 11 5 43 15 70 23 28 8 88 29 135 46 83 30 210 44 210 23z
m572 -209 c85 -90 113 -141 109 -198 -2 -16 -4 -14 -15 10 -7 17 -11 33 -9 38
2 4 -10 7 -27 7 -34 0 -45 -17 -36 -55 4 -16 11 -22 21 -19 8 4 15 1 15 -6 0
-6 5 -8 12 -4 8 5 9 2 5 -10 -4 -10 -7 -23 -7 -30 0 -7 -15 -17 -32 -22 -29
-9 -33 -14 -36 -49 -4 -50 -12 -58 -38 -36 -26 21 -44 72 -49 143 -9 109 -15
162 -24 193 -7 26 -5 39 11 64 11 17 25 31 32 31 7 0 37 -26 68 -57z m-33
-690 c-4 -22 3 -32 22 -35 41 -6 82 -88 46 -93 -21 -4 -47 31 -47 62 0 13 -6
23 -13 23 -13 0 -17 -66 -5 -85 11 -18 9 -162 -3 -191 -15 -37 -13 -67 6 -103
14 -29 14 -29 -40 -71 -31 -24 -68 -44 -85 -45 -32 -3 -31 -3 -34 68 0 15 -3
27 -7 27 -3 0 -5 14 -4 30 1 17 -2 33 -7 36 -4 3 -8 0 -8 -5 0 -6 -4 -11 -10
-11 -5 0 -10 7 -10 15 0 8 -5 15 -11 15 -6 0 -9 6 -6 13 3 7 -6 24 -20 37 -14
14 -20 26 -14 30 7 4 8 17 1 40 -6 19 -10 36 -10 37 0 2 9 3 20 3 11 0 20 -4
20 -9 0 -5 9 -7 20 -4 19 5 26 -12 21 -54 -1 -6 2 -14 7 -17 5 -3 9 5 9 17 1
57 1 59 26 46 20 -11 21 -11 8 4 -7 10 -20 17 -29 17 -8 0 -12 3 -9 7 4 3 20
6 36 5 17 0 32 5 35 14 4 9 -2 14 -17 15 -21 0 -21 1 3 12 14 6 28 16 32 22 5
6 8 3 8 -7 0 -10 6 -18 14 -18 11 0 14 12 13 53 -2 38 2 59 17 80 20 27 27 33
25 20z m-182 -465 c-3 -7 -5 -2 -5 12 0 14 2 19 5 13 2 -7 2 -19 0 -25z m308
-97 c10 -18 17 -91 8 -91 -13 0 -53 56 -53 74 0 21 34 34 45 17z m-208 -453
c2 -25 -15 -51 -28 -42 -15 9 -10 42 9 53 9 6 17 11 17 11 1 0 1 -10 2 -22z"/>
<path d="M1547 4155 c3 -16 6 -35 6 -42 0 -7 4 -13 9 -13 13 0 9 32 -7 60
l-15 25 7 -30z"/>
<path d="M1322 3769 c-19 -40 -34 -87 -34 -110 0 -21 -4 -39 -9 -39 -5 0 -9 4
-9 10 0 5 -10 8 -22 6 -26 -3 -34 -30 -19 -66 9 -22 10 -21 7 12 -2 23 2 39
10 42 20 8 31 -16 29 -66 -1 -29 3 -47 9 -46 19 3 66 -25 66 -39 0 -7 0 -15 0
-18 0 -3 8 -24 17 -47 16 -41 38 -69 76 -98 17 -13 17 -12 0 18 -10 18 -21 32
-25 32 -5 0 -8 7 -8 15 0 9 -7 27 -16 40 -9 14 -12 25 -8 25 5 0 5 4 -1 8 -36
26 -68 216 -46 270 10 24 25 122 18 122 -1 0 -17 -32 -35 -71z"/>
<path d="M1422 3563 c2 -10 28 -59 57 -110 43 -71 63 -95 90 -108 20 -8 52
-24 71 -34 41 -22 130 -18 130 5 0 9 -8 10 -27 5 -109 -30 -212 55 -282 232
-12 30 -44 38 -39 10z"/>
<path d="M3423 3559 c-29 -11 -53 -25 -53 -30 0 -7 142 -15 186 -10 6 1 36 -8
67 -18 l57 -20 -15 29 c-34 66 -142 88 -242 49z"/>
<path d="M2288 3538 c-21 -7 -38 -15 -38 -20 0 -4 -8 -8 -18 -8 -26 0 -75 -52
-104 -110 -14 -27 -28 -47 -31 -43 -4 3 -7 -2 -6 -13 0 -15 7 -11 32 20 89
108 100 116 157 126 30 5 65 11 78 14 12 3 44 -1 71 -8 40 -10 54 -10 73 0
l23 12 -30 8 c-17 4 -35 11 -42 16 -19 15 -123 18 -165 6z"/>
<path d="M1690 3511 c0 -11 9 -41 21 -68 l20 -48 -63 62 -63 63 3 -65 4 -64
43 -21 c64 -31 89 -33 110 -10 17 19 17 22 -11 95 -21 54 -34 75 -46 75 -11 0
-18 -8 -18 -19z"/>
<path d="M2320 3430 c0 -3 -10 -6 -22 -7 -12 -1 -34 -11 -49 -23 -16 -11 -33
-20 -39 -20 -6 0 -13 -6 -16 -14 -3 -8 -14 -13 -25 -11 -12 3 -17 0 -13 -7 4
-6 -2 -18 -12 -26 -18 -13 -18 -14 6 -8 24 7 24 6 6 -8 -19 -15 -11 -22 18
-17 4 1 14 -3 21 -9 61 -50 292 -52 389 -3 l28 15 -33 -62 c-19 -34 -54 -83
-79 -110 -37 -41 -55 -52 -103 -64 -36 -9 -68 -11 -85 -6 -60 18 -123 51 -129
67 -3 10 -17 30 -30 44 -22 24 -23 28 -9 42 9 8 21 18 28 21 9 3 7 8 -7 17
-10 7 -29 22 -41 34 -19 19 -32 21 -128 21 -93 -1 -110 -4 -121 -19 -7 -11
-11 -29 -9 -40 3 -12 7 -36 9 -53 8 -55 23 -84 45 -84 11 0 20 -3 21 -7 5 -47
3 -68 -8 -79 -7 -7 -9 -14 -3 -16 5 -2 11 -15 14 -29 9 -51 28 -71 63 -65 36
5 75 -3 68 -14 -9 -14 65 -70 91 -70 l26 0 -31 -39 -30 -38 52 0 c45 1 52 -2
55 -20 2 -15 9 -19 28 -15 28 5 31 29 7 49 -16 13 -15 14 17 9 18 -4 36 -10
40 -14 3 -4 22 -21 42 -39 45 -39 67 -35 109 18 17 22 38 39 47 39 10 0 37 14
61 30 43 29 71 38 71 22 0 -12 -32 -56 -51 -69 -10 -7 -39 -52 -65 -100 -95
-176 -152 -249 -255 -326 -41 -30 -94 -42 -128 -27 -33 13 -45 12 -48 -8 -3
-25 -10 -23 -17 3 -5 21 -26 37 -26 19 0 -28 50 -82 72 -79 15 3 16 0 7 -17
-7 -13 -7 -29 -1 -46 5 -15 10 -37 10 -50 1 -12 13 -47 28 -77 22 -46 24 -58
14 -70 -21 -26 9 -43 85 -49 30 -3 75 -25 75 -38 0 -3 -11 -5 -25 -4 -13 2
-22 -1 -19 -5 6 -11 58 -12 68 -1 4 4 38 8 74 8 90 2 105 6 57 13 -31 5 -39
10 -37 24 2 12 -4 17 -23 17 -33 0 -93 56 -77 72 7 7 25 8 49 3 96 -20 154
-25 147 -13 -3 5 -12 7 -20 4 -7 -3 -16 -1 -19 4 -4 6 -21 10 -38 10 -29 0
-33 3 -35 30 -2 28 -1 30 25 24 20 -4 9 7 -38 39 -37 25 -69 52 -72 60 -6 17
-7 187 0 187 16 0 33 -31 25 -46 -18 -32 26 -163 55 -165 10 0 36 -2 58 -5 22
-2 35 0 29 4 -12 8 -44 74 -49 102 -5 28 8 32 48 15 20 -8 38 -11 40 -7 2 4 3
28 1 54 l-2 47 28 -21 c24 -17 38 -20 81 -15 28 4 59 13 68 21 9 8 20 14 25
13 5 -1 15 7 23 19 13 20 9 24 -63 78 -41 32 -81 70 -87 86 -7 15 -12 65 -11
110 2 86 9 101 49 99 65 -4 75 0 75 30 0 17 -11 42 -25 59 -21 25 -25 40 -24
93 0 109 16 219 37 272 7 16 12 39 12 51 0 12 3 26 7 29 3 4 7 27 8 52 1 32
-3 45 -12 45 -8 0 -16 -7 -19 -15 -3 -8 -28 -28 -55 -46 -47 -30 -50 -31 -74
-15 -24 16 -66 14 -90 -4 -33 -26 -216 -27 -309 -2 -37 10 -46 32 -14 32 13 0
33 7 44 15 18 12 26 12 48 2 14 -7 26 -16 26 -21 0 -5 8 -2 17 5 9 8 14 9 10
3 -4 -7 0 -14 8 -18 8 -3 15 0 15 5 0 6 9 9 20 6 11 -3 26 0 33 6 7 7 19 13
27 15 8 2 20 10 26 18 6 7 16 14 23 14 6 0 11 5 11 11 0 6 -7 9 -15 5 -9 -3
-15 0 -15 9 0 9 -10 15 -25 15 -14 0 -25 4 -25 8 0 4 -27 8 -60 8 -33 0 -60
-2 -60 -6z m-67 -1295 c5 -16 10 -34 12 -40 1 -5 2 -14 1 -18 0 -4 17 -18 38
-30 21 -12 46 -32 54 -44 14 -22 13 -23 -12 -23 -60 0 -126 73 -142 156 -6 33
-5 35 16 32 16 -2 26 -13 33 -33z"/>
<path d="M1759 3248 c-17 -31 -31 -44 -58 -53 -12 -4 -47 -18 -76 -31 -62 -29
-67 -39 -71 -161 -2 -68 0 -81 12 -76 8 3 14 1 14 -5 0 -5 18 -29 40 -53 47
-52 53 -79 15 -71 -14 2 -35 15 -48 28 -12 13 -25 24 -29 24 -16 0 17 -64 47
-93 18 -18 34 -36 35 -42 2 -5 13 -24 26 -41 27 -34 31 -54 12 -54 -10 0 -10
-2 0 -9 7 -4 24 -6 38 -3 19 3 24 0 24 -17 0 -11 4 -21 9 -21 6 0 6 -12 1 -29
-4 -16 -7 -79 -7 -140 2 -99 1 -108 -14 -95 -9 8 -18 11 -22 8 -4 -4 -4 4 -2
16 3 13 1 28 -4 34 -5 6 -12 31 -16 56 -4 25 -12 63 -18 84 l-11 40 -11 -50
c-6 -27 -10 -73 -8 -103 3 -58 7 -64 90 -108 53 -29 83 -30 83 -4 0 11 -4 22
-8 25 -5 3 -7 18 -5 33 3 15 0 46 -5 69 -13 56 10 105 56 118 41 11 51 2 23
-21 -20 -17 -22 -27 -23 -127 -1 -106 0 -110 28 -144 16 -20 36 -45 44 -56 23
-32 50 -32 50 -1 0 14 -5 25 -11 25 -5 0 -7 5 -4 10 3 6 1 10 -5 10 -6 0 -8 5
-5 10 3 6 -1 10 -9 10 -9 0 -15 3 -15 8 4 21 -2 32 -13 26 -8 -5 -9 -2 -5 9 3
10 2 17 -3 17 -6 0 -10 16 -10 35 0 26 4 35 16 35 12 0 15 -6 11 -21 -3 -13 2
-28 14 -40 10 -10 18 -25 16 -31 -1 -7 3 -12 10 -11 6 2 14 -6 18 -16 3 -10
16 -24 30 -31 13 -7 22 -17 19 -21 -3 -5 0 -17 6 -26 8 -14 10 -14 9 -3 -2 26
1 40 9 37 19 -6 7 67 -15 84 -8 7 -20 27 -28 46 -8 18 -19 33 -24 33 -6 0 -11
9 -11 19 0 29 -21 37 -37 15 -18 -24 -32 -5 -26 34 15 86 11 112 -23 155 -19
23 -34 47 -34 53 0 6 -7 17 -15 24 -8 6 -22 37 -31 68 -18 60 -19 66 -30 122
-4 19 -14 40 -24 47 -9 6 -22 30 -29 52 -6 23 -18 41 -25 41 -8 0 -19 7 -26
15 -10 11 -8 19 8 39 11 14 22 23 24 20 8 -8 59 57 55 70 -2 6 -14 17 -28 23
-14 7 -18 13 -9 13 17 0 41 32 52 68 8 28 2 28 -13 0z m-43 -541 c1 -9 -4 -21
-11 -27 -10 -9 -16 -6 -25 10 -6 11 -8 24 -5 29 8 15 38 6 41 -12z"/>
<path d="M1550 2885 c0 -14 4 -25 9 -25 4 0 6 11 3 25 -2 14 -6 25 -8 25 -2 0
-4 -11 -4 -25z"/>
<path d="M3285 2670 c-4 -12 -1 -35 5 -51 14 -33 2 -94 -33 -163 -21 -42 -93
-116 -113 -116 -22 0 -26 -20 -11 -44 14 -21 20 -22 69 -16 58 8 68 6 68 -16
0 -22 16 -16 28 11 12 27 34 31 76 16 18 -8 25 -19 28 -43 2 -27 8 -34 29 -36
42 -5 45 -50 7 -103 -11 -16 -5 -49 9 -49 4 1 17 15 28 32 26 40 39 44 62 18
l20 -20 -2 22 c-3 34 16 68 37 68 10 0 18 -4 18 -10 0 -5 6 -7 14 -4 14 6 15
16 1 47 -4 9 -5 24 -1 32 3 8 1 15 -4 15 -6 0 -10 14 -10 30 0 17 -4 30 -9 30
-5 0 -7 10 -4 23 3 12 2 19 -2 14 -5 -4 -16 4 -25 18 -16 25 -130 152 -207
231 -23 24 -43 51 -45 60 -5 26 -25 28 -33 4z"/>
<path d="M2758 2156 c-48 -26 -49 -27 -36 -40 13 -12 75 -40 93 -42 6 0 17 -4
25 -7 76 -29 238 -29 310 -1 30 12 56 26 58 32 6 19 -114 43 -220 44 -27 1
-48 4 -48 8 0 4 -6 7 -12 8 -120 12 -145 12 -170 -2z"/>
<path d="M1650 2080 c0 -11 -4 -20 -8 -20 -4 0 -8 -11 -8 -25 0 -14 4 -25 8
-25 5 0 22 -13 39 -29 20 -20 26 -31 17 -34 -8 -3 -6 -6 5 -6 11 -1 17 -7 14
-13 -2 -7 1 -20 8 -28 7 -8 17 -28 23 -45 10 -27 11 -26 5 15 -3 25 -6 57 -7
73 -1 15 -4 27 -8 27 -5 0 -8 21 -8 48 0 35 -5 52 -20 65 -28 24 -60 22 -60
-3z"/>
<path d="M1634 1935 c5 -20 76 -127 76 -113 0 3 -8 24 -39 106 -16 39 -47 45
-37 7z"/>
<path d="M2850 1950 c0 -5 -7 -6 -17 -3 -11 4 -14 3 -9 -5 5 -8 -1 -12 -17
-12 -20 0 -24 -5 -23 -27 1 -20 5 -27 16 -24 8 2 28 6 44 9 26 4 27 3 17 -16
-6 -11 -11 -37 -11 -57 0 -20 -4 -34 -9 -31 -5 3 -8 -2 -7 -11 0 -10 -7 -17
-21 -18 -13 -1 -23 2 -23 7 0 4 5 8 10 8 6 0 10 4 10 10 0 12 -74 32 -108 29
-15 -2 -38 1 -51 5 -16 6 -26 4 -32 -5 -6 -10 -9 -11 -9 -1 0 22 -107 15 -147
-9 l-34 -21 53 -34 c70 -46 115 -59 159 -47 48 14 118 7 181 -16 52 -20 52
-20 28 -1 l-25 20 27 0 c15 0 37 -4 51 -9 14 -6 29 -6 38 0 10 6 10 9 2 9 -7
0 -13 7 -13 15 0 8 -9 15 -19 15 -23 0 -37 16 -19 23 7 2 26 -5 41 -16 l29
-20 -3 34 c-2 19 -5 39 -8 44 -3 6 -7 19 -8 29 -2 10 -13 40 -25 65 -12 25
-22 50 -22 55 -1 12 -46 18 -46 6z"/>
<path d="M2160 1921 c0 -5 11 -22 25 -36 20 -19 36 -25 72 -25 26 0 44 2 42 5
-5 4 -43 13 -66 14 -6 1 -25 13 -42 27 -17 14 -31 21 -31 15z"/>
<path d="M3871 1845 c-47 -69 -76 -121 -59 -108 7 6 34 31 59 55 39 37 45 47
40 73 l-6 30 -34 -50z"/>
<path d="M3540 1677 c0 -12 16 -47 35 -77 38 -59 40 -66 25 -75 -15 -9 -2 -25
21 -25 11 0 19 -7 19 -17 0 -35 21 -89 46 -118 25 -30 25 -30 21 -5 -4 27 -11
47 -34 99 -8 18 -16 40 -17 47 -1 7 -5 17 -9 21 -4 4 -25 44 -47 90 -40 83
-60 103 -60 60z"/>
<path d="M2646 1659 c-27 -4 -53 -12 -58 -17 -13 -13 24 -50 59 -58 16 -4 31
-12 35 -18 5 -6 8 -1 8 12 0 12 3 21 8 20 21 -4 39 15 34 35 -5 21 -21 38 -32
36 -3 -1 -27 -5 -54 -10z"/>
<path d="M1790 1550 c0 -23 25 -27 33 -6 7 16 -1 26 -20 26 -7 0 -13 -9 -13
-20z"/>
<path d="M3544 1445 c9 -46 43 -120 65 -138 12 -10 13 -9 7 8 -5 11 -10 32
-12 46 -5 39 -20 71 -44 99 l-23 25 7 -40z"/>
<path d="M2436 1435 c4 -8 19 -15 34 -15 31 0 48 -15 27 -23 -6 -2 -31 -3 -54
-2 -24 1 -43 -2 -43 -7 0 -4 -3 -7 -7 -7 -20 3 -43 -2 -43 -10 0 -9 122 -10
130 0 3 3 26 10 51 15 53 12 79 1 79 -34 0 -19 2 -20 26 -7 19 10 34 11 52 4
13 -5 33 -7 44 -4 31 11 75 -5 107 -37 17 -17 28 -34 26 -38 -3 -4 11 -11 30
-14 29 -6 35 -11 35 -32 0 -20 2 -23 13 -12 30 27 -41 165 -85 167 -10 1 -18
5 -18 11 0 11 -58 37 -99 45 -84 16 -142 16 -172 1 -40 -20 -56 -20 -93 -1
-36 19 -47 19 -40 0z"/>
<path d="M3336 1442 c-6 -10 72 -82 88 -82 12 0 -36 60 -61 77 -12 8 -24 10
-27 5z"/>
<path d="M3180 1317 c0 -9 -11 -33 -25 -53 -37 -54 -33 -81 18 -129 63 -59
133 -105 174 -117 57 -16 74 -18 68 -7 -4 5 -12 9 -18 9 -7 0 -29 9 -50 20
-20 11 -44 20 -52 20 -8 0 -15 3 -15 8 0 4 -18 20 -40 36 -22 17 -40 35 -40
42 0 7 -6 17 -12 21 -18 11 -37 68 -28 83 14 22 44 6 54 -30 12 -42 62 -100
87 -100 10 0 24 -8 31 -18 35 -46 210 -75 258 -42 14 10 30 19 35 20 6 1 9 6
7 11 -1 5 2 9 8 9 5 0 10 12 10 27 l0 27 -17 -24 c-37 -54 -55 -60 -47 -14 2
13 3 24 2 24 -2 0 -27 9 -55 19 -34 12 -66 17 -92 14 -41 -6 -111 12 -111 28
0 5 -8 9 -18 9 -10 0 -25 8 -34 18 -28 29 -52 47 -60 45 -5 -2 -8 3 -8 10 0 6
-7 21 -15 31 -13 17 -15 17 -15 3z"/>
<path d="M3755 1261 c42 -41 53 -38 54 17 1 20 -4 22 -46 22 l-48 0 40 -39z"/>
<path d="M2526 1275 c-5 -15 0 -17 39 -13 30 2 45 -1 45 -8 0 -7 8 -10 20 -7
11 3 20 0 20 -6 0 -6 6 -10 13 -8 6 1 11 -4 9 -11 -1 -8 2 -11 8 -7 5 3 10 13
10 21 0 8 4 14 10 14 5 0 7 6 4 13 -6 17 44 17 54 0 6 -10 12 -10 28 2 16 13
16 14 2 9 -10 -3 -18 -1 -18 5 0 13 -86 15 -95 2 -3 -6 -15 -7 -28 -4 -12 2
-43 7 -68 10 -37 4 -47 1 -53 -12z"/>
<path d="M2465 1269 c-4 -5 -19 -9 -35 -9 -16 0 -31 -3 -33 -7 -3 -5 -26 -8
-50 -7 -48 1 -57 -12 -23 -32 15 -9 28 -8 55 4 20 8 56 15 80 16 36 1 45 5 47
21 2 15 -3 21 -16 22 -11 1 -22 -2 -25 -8z"/>
<path d="M1570 1240 c0 -7 -7 -10 -15 -6 -8 3 -15 1 -15 -4 0 -5 -11 -12 -25
-16 -14 -3 -25 -10 -25 -16 0 -5 -4 -7 -9 -3 -5 3 -12 1 -16 -5 -4 -6 -11 -8
-16 -5 -5 4 -9 2 -9 -3 0 -5 -16 -17 -35 -28 -19 -10 -35 -26 -35 -36 0 -18
-11 -23 -77 -33 -41 -6 -70 -25 -39 -25 22 0 0 -57 -29 -76 -25 -16 -39 -51
-24 -60 5 -3 9 4 9 15 0 13 6 18 18 17 13 -3 17 -12 15 -42 -3 -77 -7 -87 -35
-98 -37 -14 -36 -44 2 -78 23 -20 39 -26 65 -24 19 2 36 0 36 -5 1 -5 2 -18 3
-29 1 -25 13 -34 62 -48 57 -17 67 -15 61 7 -6 23 22 33 97 35 54 1 74 21 32
32 -14 3 -26 9 -26 13 0 3 17 25 39 49 37 41 79 58 68 28 -3 -8 -1 -16 5 -18
6 -2 12 -12 14 -21 2 -13 -5 -17 -29 -17 -24 0 -28 -3 -17 -10 17 -10 24 -110
8 -110 -5 0 -6 -4 -3 -10 3 -5 1 -10 -4 -10 -6 0 -11 -17 -11 -37 0 -21 4 -33
8 -27 11 16 37 23 53 13 12 -7 11 -13 -4 -40 -15 -27 -15 -31 -1 -25 8 3 22 6
30 6 7 0 11 6 8 13 -5 13 1 14 48 8 4 -1 6 -14 6 -31 -1 -21 -6 -30 -22 -32
-29 -5 -116 13 -116 23 0 5 -7 5 -17 2 -11 -4 -14 -3 -9 5 4 7 1 12 -8 12 -8
0 -18 -5 -22 -12 -4 -7 -3 -8 4 -4 7 4 12 3 12 -3 0 -6 15 -13 34 -16 19 -4
48 -21 67 -41 24 -25 42 -34 65 -34 20 0 34 -6 38 -16 9 -23 8 -24 -19 -24
-14 0 -25 -4 -25 -8 0 -13 -73 -4 -82 10 -8 13 -12 53 -8 73 1 6 -2 6 -6 2 -9
-9 -13 -28 -17 -74 -2 -38 -12 -43 -21 -10 -3 12 -18 37 -33 55 -28 33 -39 36
-165 45 -14 1 -26 4 -26 7 1 3 -2 13 -6 22 -7 16 -10 16 -37 2 -16 -8 -28 -18
-25 -22 7 -11 -45 -14 -58 -3 -6 5 -51 8 -101 7 -71 -1 -97 2 -122 16 -17 10
-42 17 -55 14 -51 -9 -78 -19 -73 -25 2 -4 -5 -15 -16 -24 -11 -10 -17 -22
-14 -28 5 -7 12 -6 21 2 8 6 14 8 14 3 0 -5 5 -1 11 8 5 10 16 15 25 11 11 -4
12 -9 3 -19 -9 -11 -8 -19 4 -37 25 -38 88 -97 98 -91 5 3 9 0 9 -5 0 -6 16
-11 35 -11 l35 0 -5 -48 c-3 -26 -7 -59 -9 -74 -4 -36 8 -35 49 1 25 21 41 28
64 25 43 -5 101 -50 101 -79 0 -14 7 -25 19 -28 16 -4 20 1 23 27 2 17 7 30
12 29 11 -3 15 -18 23 -75 l5 -38 389 0 c253 0 389 4 389 10 0 6 -4 10 -10 10
-5 0 -10 29 -12 65 -2 36 -7 65 -12 65 -6 0 -11 -7 -12 -16 -4 -23 -10 -27
-33 -19 -18 6 -21 14 -21 71 0 36 4 64 10 64 6 0 10 7 10 15 0 8 6 15 14 15 8
0 17 8 20 18 3 9 17 29 31 44 l24 27 -31 7 c-18 3 -41 11 -53 17 -46 23 -55
27 -69 27 -8 0 -21 6 -28 13 -7 7 -17 15 -23 16 -34 8 -78 38 -120 81 -27 28
-46 50 -42 50 3 0 -4 20 -18 46 -13 25 -21 52 -18 60 3 8 1 20 -5 27 -5 6 -9
27 -7 45 2 29 -2 33 -36 44 -21 6 -37 14 -36 17 1 3 -2 8 -8 10 -20 9 -32 26
-28 39 3 7 0 12 -8 10 -7 -2 -17 11 -23 27 -6 17 -13 32 -17 35 -3 3 -5 15 -4
28 1 12 -2 22 -6 22 -12 0 -8 90 6 130 6 19 11 55 11 80 -1 43 -2 45 -33 48
-20 2 -33 -1 -33 -8z"/>
<path d="M3715 1220 c-7 -11 38 -60 55 -60 15 0 -15 56 -34 63 -9 4 -18 2 -21
-3z"/>
<path d="M2425 1170 c4 -7 136 -2 144 6 3 3 -29 4 -71 3 -43 -1 -76 -5 -73 -9z"/>
<path d="M4115 1101 c-3 -5 6 -18 19 -29 29 -22 28 -41 -1 -78 -16 -20 -19
-32 -13 -54 12 -42 5 -130 -14 -172 -14 -33 -21 -38 -50 -38 -54 0 -77 -29
-83 -102 -6 -85 -6 -84 -57 -108 -25 -11 -54 -33 -63 -48 -10 -15 -34 -48 -55
-73 -21 -25 -38 -55 -38 -66 0 -27 -52 -125 -82 -156 -13 -13 -40 -42 -60 -65
-34 -37 -42 -40 -85 -40 -26 0 -95 -3 -153 -7 -167 -12 -172 -12 -234 7 -32
10 -60 17 -61 16 0 -2 -8 -22 -17 -46 l-16 -42 989 0 990 0 -6 23 c-12 43 -16
56 -19 74 -2 10 -11 45 -20 78 -9 33 -19 68 -21 77 -13 57 -73 215 -108 283
-49 97 -125 176 -252 259 -49 33 -99 68 -109 78 -11 10 -23 18 -27 18 -4 0
-14 6 -21 13 -15 15 -141 102 -148 102 -3 0 -18 10 -35 21 -58 41 -144 84
-150 75z"/>
<path d="M2534 1079 c-2 -4 34 -8 80 -8 47 0 97 -3 113 -7 28 -7 83 -56 83
-75 0 -5 7 -9 15 -9 8 0 15 4 15 9 0 16 -92 91 -114 93 -68 5 -188 3 -192 -3z"/>
<path d="M3079 1078 c-13 -43 -2 -57 90 -113 50 -31 83 -45 105 -44 17 1 43
-2 59 -6 18 -5 27 -3 27 5 0 6 -5 8 -10 5 -14 -9 -134 60 -177 101 -19 19 -43
39 -53 44 -17 9 -39 13 -41 8z"/>
<path d="M2440 1049 c-14 -6 -43 -12 -65 -14 -53 -5 -54 -6 -25 -14 30 -8 167
12 183 28 14 14 -57 14 -93 0z"/>
<path d="M2631 944 c-14 -6 -50 -17 -78 -23 -29 -7 -53 -17 -53 -22 0 -12 36
-12 58 0 9 5 35 12 56 15 22 4 45 11 51 16 14 12 75 6 105 -10 22 -12 22 -12
7 11 -14 19 -26 23 -68 23 -29 1 -64 -4 -78 -10z"/>
<path d="M3119 681 c34 -48 95 -78 146 -72 6 1 -11 12 -38 25 -26 14 -61 36
-78 50 -41 35 -55 33 -30 -3z"/>
<path d="M2235 93 l2 -88 229 -2 c237 -2 254 3 117 32 -73 16 -238 87 -268
115 -12 11 -35 22 -51 26 l-30 6 1 -89z"/>
</g>
</svg>
